
Cover: 
http://www.toopmovie10.in/wp-content/uploads/2012/11/40Days-And-Nights-2012.jpg
Release info:
General
Format                                   : Matroska
Format version                           : Version 2
File size                                : 683 MiB
Duration                                 : 1h 26mn
Overall bit rate                         : 1 109 Kbps


Video
ID                                       : 1
Format                                   : MPEG-4 Visual
Format profile                           : Advanced Simple@L5
Format settings, BVOP                    : Yes
Format settings, QPel                    : No
Format settings, GMC                     : No warppoints
Format settings, Matrix                  : Default (H.263)
Codec ID                                 : V_MS/VFW/FOURCC / XVID
Codec ID/Hint                            : XviD
Duration                                 : 1h 26mn
Bit rate                                 : 959 Kbps
Width                                    : 640 pixels
Height                                   : 352 pixels
Display aspect ratio                     : 16:9
Frame rate mode                          : Constant
Frame rate                               : 23.976 fps
Color space                              : YUV
Chroma subsampling                       : 4:2:0
Bit depth                                : 8 bits
Scan type                                : Progressive
Compression mode                         : Lossy
Bits/(Pixel*Frame)                       : 0.177
Stream size                              : 591 MiB (86%)
Language                                 : English
Default                                  : Yes
Forced                                   : No

Audio
ID                                       : 2
Format                                   : MPEG Audio
Format version                           : Version 1
Format profile                           : Layer 3
Mode                                     : Joint stereo
Mode extension                           : MS Stereo
Muxing mode                              : Header stripping
Codec ID                                 : A_MPEG/L3
Codec ID/Hint                            : MP3
Duration                                 : 1h 26mn
Bit rate mode                            : Constant
Bit rate                                 : 128 Kbps
Channel(s)                               : 2 channels
Sampling rate                            : 44.1 KHz
Compression mode                         : Lossy
Stream size                              : 78.8 MiB (12%)
Writing library                          : LAME3.98.2
Language                                 : English
Default                                  : Yes
Forced                                   : No

Source:
credit to original movie ripper MARGiN (Thanks)
IMDB Info:
When a colossal tectonic shift causes the sea level to start rising, a microbiologist gathers the DNA of as many species as she can, while the military creates an "ark" in a desperate attempt to preserve life on Earth.

Director: Peter Geiger
Writer: H. Perry Horton
Stars: Alex Carter, Christianna Carmine and Emily Sandifer

Genres: Action
 
http://www.imdb.com/title/tt2439946/
Screen Shot: 
http://www.shotpix.com/images/07057372733031970633.jpg 
http://www.shotpix.com/images/30846444166286299789.jpg 
http://www.shotpix.com/images/83250309927704282425.jpg 
http://www.shotpix.com/images/38858657063064327596.jpg 
http://www.shotpix.com/images/80440570438502184243.jpg 
http://www.shotpix.com/images/24950120702418965061.jpg 
http://www.shotpix.com/images/08680052307009878216.jpg 
http://www.shotpix.com/images/08038986173679330128.jpg